<svg width="207" height="199" viewBox="0 0 207 199" fill="none" xmlns="http://www.w3.org/2000/svg">
<circle cx="103.5" cy="99.5" r="81.5" fill="white"/>
<path d="M55.4805 67V93.3394C55.4805 126.078 76.896 152.434 103.498 152.434C130.1 152.434 151.516 126.078 151.516 93.3394V67H55.4805Z" stroke="#1A8FE3" stroke-width="11.0949" stroke-linecap="round"/>
<path d="M117.078 87.3787C115.274 87.9144 114.014 89.827 114.014 92.0645C114.028 93.5238 114.425 94.5939 115.353 95.6316L116.083 96.4423H115.619C115.353 96.4423 114.81 96.6693 114.385 96.9449C112.993 97.8373 109.917 100.82 107.397 103.755C106.442 104.857 106.349 105.02 106.283 105.701C106.11 107.581 107.636 108.928 108.961 108.068C109.187 107.939 110.009 107.16 110.805 106.35C111.588 105.538 112.264 104.873 112.304 104.873C112.344 104.873 112.33 110.386 112.277 117.116C112.184 128.448 112.184 129.406 112.397 130.087C113.073 132.259 115.46 132.502 116.335 130.492C116.56 129.973 116.587 129.487 116.587 124.703V119.467H117.449H118.311V124.574C118.311 130.184 118.337 130.41 119.093 131.189C119.677 131.772 120.367 131.983 121.029 131.772C121.679 131.561 122.369 130.783 122.568 130.038C122.673 129.633 122.727 125.919 122.74 117.18C122.74 110.403 122.78 104.873 122.807 104.873C122.833 104.873 123.523 105.554 124.332 106.381C126.069 108.181 126.215 108.278 126.931 108.278C128.323 108.278 129.292 106.592 128.721 105.149C128.509 104.598 127.514 103.624 121.083 97.6415C119.677 96.3288 119.663 96.3119 119.995 96.1012C120.552 95.7289 121.335 94.5122 121.573 93.6529C121.892 92.4699 121.785 90.7019 121.321 89.7777C120.433 87.9132 118.643 86.9085 117.078 87.3787Z" fill="#1A8FE3"/>
<path d="M87.1734 88.5131C84.0436 89.2595 82.9168 93.9453 85.2105 96.653L85.8071 97.3665L85.0379 97.4637C83.4733 97.6259 82.2665 98.6636 81.643 100.366L81.2716 101.371L81.2978 105.117L81.3247 108.862L79.9321 113.759C78.5933 118.444 77.9961 120.714 77.9961 121.022C78.0099 121.557 78.2619 121.655 80.0121 121.736L81.7756 121.818L81.8425 126.292C81.9088 131.108 81.9088 131.092 82.6517 131.562C83.1688 131.886 83.5928 131.854 84.1099 131.416C84.8128 130.832 84.8791 130.395 84.8791 125.822L84.8928 121.736H85.7545H86.6169V125.903C86.6169 130.638 86.67 130.946 87.5717 131.546C88.0226 131.838 88.102 131.854 88.6329 131.628C89.6009 131.206 89.6534 130.946 89.6672 126.926C89.681 125.012 89.7204 123.05 89.7604 122.58L89.8398 121.736H91.4844C93.2347 121.736 93.6462 121.607 93.6462 121.056C93.6462 120.861 92.8107 118.056 91.7758 114.813C90.4101 110.484 89.9323 108.781 89.9592 108.359L89.9992 107.809L91.1117 108.943C92.358 110.208 92.7163 110.467 93.3798 110.629C93.6718 110.694 93.9369 110.905 94.1095 111.181C94.2552 111.44 95.3958 112.64 96.629 113.872L98.8833 116.093L99.0421 119.612C99.1215 121.541 99.2541 124.314 99.3341 125.789C99.4135 127.265 99.4798 128.983 99.4798 129.632C99.4798 130.637 99.5198 130.864 99.8113 131.27C100.209 131.853 100.726 131.999 101.296 131.707L101.734 131.48V128.724C101.734 126.876 101.787 125.935 101.88 125.854C102.185 125.627 102.265 126.26 102.265 128.805C102.265 130.702 102.305 131.464 102.438 131.578C102.981 132.113 103.975 131.805 104.307 130.994C104.453 130.669 104.519 130.069 104.519 129.161C104.519 128.415 104.639 125.887 104.784 123.519C104.931 121.152 105.05 118.606 105.05 117.876V116.514L105.819 117.325C107.093 118.671 107.49 118.784 108.113 118.022C108.564 117.472 108.618 116.758 108.273 116.256C107.848 115.656 105.408 113.126 104.493 112.332L103.604 111.57L103.975 111.229C104.771 110.516 105.142 108.765 104.731 107.581C104.334 106.414 103.02 105.538 102.012 105.765C100.036 106.204 99.2678 109.041 100.62 110.873L101.084 111.505L100.263 112.024C99.4798 112.494 99.4142 112.51 99.0165 112.283C98.7907 112.154 98.1942 111.586 97.6901 111.003C97.1724 110.435 96.5358 109.771 96.2706 109.511C95.8592 109.138 95.7935 109.008 95.8992 108.765C96.1118 108.294 96.058 107.046 95.8067 106.414C95.6472 105.992 94.5066 104.759 91.8546 102.068C89.8123 99.9925 88.1145 98.2258 88.1014 98.1447C88.0751 98.0474 88.3002 97.9333 88.6054 97.8691C90.3426 97.5118 91.6157 95.7775 91.7483 93.6048C91.8277 92.4212 91.6551 91.5781 91.138 90.5728C90.3163 88.9839 88.6979 88.1408 87.1734 88.5131Z" fill="#1A8FE3"/>
</svg>
