<svg width="204" height="204" viewBox="0 0 204 204" fill="none" xmlns="http://www.w3.org/2000/svg">
<circle cx="102" cy="102" r="102" fill="#D1E9F9" fill-opacity="0.35"/>
<g clip-path="url(#clip0_3091_20999)">
<path d="M141.194 127.184C141.194 130.524 139.868 133.727 137.506 136.088C135.145 138.45 131.942 139.776 128.602 139.776H59.3426C56.0028 139.776 52.7999 138.45 50.4383 136.088C48.0767 133.727 46.75 130.524 46.75 127.184V57.9246C46.75 54.5849 48.0767 51.3819 50.4383 49.0203C52.7999 46.6587 56.0028 45.332 59.3426 45.332H128.602C131.942 45.332 135.145 46.6587 137.506 49.0203C139.868 51.3819 141.194 54.5849 141.194 57.9246V127.184Z" fill="#D99E82"/>
<path d="M134.883 127.185C134.883 128.855 134.22 130.457 133.039 131.638C131.858 132.818 130.257 133.482 128.587 133.482H59.3275C57.6577 133.482 56.0562 132.818 54.8754 131.638C53.6946 130.457 53.0312 128.855 53.0312 127.185V57.9262C53.0312 56.2563 53.6946 54.6548 54.8754 53.474C56.0562 52.2932 57.6577 51.6299 59.3275 51.6299H128.587C130.257 51.6299 131.858 52.2932 133.039 53.474C134.22 54.6548 134.883 56.2563 134.883 57.9262V127.185Z" fill="#5500FF"/>
<path d="M70.3914 73.3444C70.1396 73.6466 69.8122 74.0999 69.8122 74.6288C69.8122 75.7873 70.6685 76.291 71.7766 76.291H80.1822C81.1392 76.291 81.9955 75.7873 81.9955 74.6288C81.9955 73.4703 81.1424 72.9666 80.0311 72.9666H75.4253C77.5629 70.2749 81.4666 66.8025 81.4666 63.3018C81.4666 60.1064 78.9733 58.0664 75.8787 58.0664C72.784 58.0664 69.9633 60.607 69.9633 63.7803C69.9633 64.7594 70.5929 65.6157 71.8018 65.6157C74.2196 65.6157 72.8344 61.5388 75.7275 61.5388C76.7601 61.5388 77.5409 62.4455 77.5409 63.4781C77.5409 64.3847 77.1127 65.1655 76.6594 65.8203C74.7453 68.5875 72.4818 70.8542 70.3914 73.3444ZM66.2768 90.4483H62.6281V86.7964C62.6281 85.8897 62.0488 85.2884 61.117 85.2884C60.1883 85.2884 59.609 85.8929 59.609 86.7964V90.4483H55.9603C55.0285 90.4483 54.4492 91.0527 54.4492 91.9562C54.4492 92.8629 55.0285 93.4673 55.9603 93.4673H59.609V97.116C59.609 98.0227 60.1883 98.624 61.117 98.624C62.0488 98.624 62.6281 98.0227 62.6281 97.116V93.4673H66.2768C67.2087 93.4673 67.7879 92.8629 67.7879 91.9562C67.7879 91.0527 67.2087 90.4483 66.2768 90.4483ZM80.0311 95.0036H75.4222C77.5629 92.312 81.4635 88.8396 81.4635 85.3388C81.4635 82.1434 78.9701 80.1034 75.8755 80.1034C72.7809 80.1034 69.9601 82.6471 69.9601 85.8173C69.9601 86.7964 70.5898 87.6527 71.7955 87.6527C74.2133 87.6527 72.8281 83.5759 75.7244 83.5759C76.757 83.5759 77.5377 84.4825 77.5377 85.5151C77.5377 86.4218 77.1096 87.2025 76.6563 87.8573C74.7422 90.6246 72.4787 92.8912 70.3883 95.3846C70.1364 95.6868 69.809 96.1401 69.809 96.669C69.809 97.8275 70.6653 98.3312 71.7735 98.3312H80.179C81.1361 98.3312 81.9924 97.8275 81.9924 96.669C81.9924 95.5073 81.1392 95.0036 80.0311 95.0036ZM82.6755 105.053H56.4388C56.0214 105.053 55.621 104.887 55.3258 104.591C55.0306 104.296 54.8648 103.896 54.8648 103.478C54.8648 103.061 55.0306 102.661 55.3258 102.365C55.621 102.07 56.0214 101.904 56.4388 101.904H82.6724C83.0898 101.904 83.4904 102.069 83.7859 102.364C84.0814 102.659 84.2476 103.059 84.248 103.477C84.2484 103.894 84.083 104.295 83.7881 104.59C83.4932 104.886 83.093 105.052 82.6755 105.053Z" fill="white"/>
<path d="M160.086 158.668V152.371C160.086 147.362 158.096 142.557 154.553 139.015C151.011 135.472 146.206 133.482 141.197 133.482H90.8264C85.8167 133.482 81.0123 135.472 77.4699 139.015C73.9276 142.557 71.9375 147.362 71.9375 152.371V158.668H160.086Z" fill="#E1E8ED"/>
<path d="M102.292 133.797C107.783 137.789 111.258 138.677 116.018 138.677C120.778 138.677 124.251 137.786 129.741 133.797V121.8H102.289V133.797H102.292Z" fill="#FDDC61"/>
<path d="M102.265 127.101C106.093 131.426 110.84 132.597 116.003 132.597C121.163 132.597 125.907 131.423 129.739 127.101V116.11H102.262V127.101H102.265Z" fill="#F9CA55"/>
<path d="M95.3626 95.5037C95.3626 100.062 93.0519 103.758 90.2028 103.758C87.3537 103.758 85.043 100.062 85.043 95.5037C85.043 90.9452 87.3537 87.2461 90.2028 87.2461C93.0519 87.2429 95.3626 90.942 95.3626 95.5037ZM146.958 95.5037C146.958 100.062 144.65 103.758 141.798 103.758C138.949 103.758 136.638 100.062 136.638 95.5037C136.638 90.9452 138.946 87.2461 141.798 87.2461C144.65 87.2429 146.958 90.942 146.958 95.5037Z" fill="#FDDC61"/>
<path d="M89.1836 98.7218C89.1836 81.1268 101.197 66.8594 116.015 66.8594C130.834 66.8594 142.844 81.1268 142.844 98.7218C142.844 116.317 130.834 130.584 116.015 130.584C101.2 130.584 89.1836 116.32 89.1836 98.7218Z" fill="#FDDC61"/>
<path d="M130.257 112.534L126.265 111.671C124.993 111.375 122.572 111.445 121.433 111.445H109.819C108.68 111.445 106.259 111.375 104.984 111.668L100.998 112.531C99.9026 112.849 99.2667 113.768 99.5815 114.86C99.8396 115.767 100.668 116.249 101.565 116.249C101.751 116.249 101.943 116.167 102.131 116.116L106.12 114.949C105.889 115.248 105.747 115.606 105.71 115.983C105.673 116.359 105.743 116.738 105.912 117.077C106.16 117.563 106.591 117.932 107.11 118.103C107.629 118.273 108.194 118.231 108.683 117.986L111.938 116.356C111.98 116.86 112.21 117.33 112.583 117.673C112.956 118.015 113.443 118.205 113.95 118.204C114.333 118.204 114.71 118.097 115.036 117.895C115.362 117.693 115.626 117.404 115.798 117.061L116.012 116.626L115.845 117.061C116.204 117.782 116.55 118.204 117.309 118.204C117.628 118.202 117.942 118.128 118.228 117.986C118.533 117.829 118.793 117.597 118.984 117.312C119.175 117.026 119.291 116.698 119.32 116.356L122.572 117.986C123.061 118.232 123.626 118.275 124.146 118.104C124.665 117.933 125.095 117.564 125.343 117.077C125.51 116.738 125.579 116.359 125.542 115.983C125.506 115.607 125.364 115.249 125.135 114.949L129.121 116.116C129.306 116.167 129.501 116.249 129.69 116.249C130.588 116.249 131.412 115.77 131.674 114.86C131.985 113.768 131.353 112.849 130.257 112.534ZM116.012 56.2891C133.792 56.2891 144.905 69.4105 144.905 80.3441C144.905 91.2776 142.683 95.6535 140.46 91.2776L136.015 82.532C136.015 82.532 122.683 82.532 118.237 78.1561C118.237 78.1561 124.905 91.2776 111.57 78.1561C111.57 78.1561 113.792 86.9048 100.457 75.9713C100.457 75.9713 93.7889 80.3441 91.5663 91.2776C90.9492 94.3124 87.1211 91.2776 87.1211 80.3441C87.1179 69.4105 96.0083 56.2891 116.012 56.2891Z" fill="#FFAC33"/>
<path d="M103.418 98.8487C101.686 98.8487 100.27 97.4321 100.27 95.7006V92.5524C100.27 90.821 101.686 89.4043 103.418 89.4043C105.149 89.4043 106.566 90.821 106.566 92.5524V95.7006C106.566 97.4321 105.149 98.8487 103.418 98.8487ZM128.603 98.8487C126.871 98.8487 125.455 97.4321 125.455 95.7006V92.5524C125.455 90.821 126.871 89.4043 128.603 89.4043C130.334 89.4043 131.751 90.821 131.751 92.5524V95.7006C131.751 97.4321 130.334 98.8487 128.603 98.8487Z" fill="#FF7D33"/>
<path d="M118.38 107.507H113.658C112.358 107.507 111.297 106.446 111.297 105.146C111.297 103.846 112.358 102.785 113.658 102.785H118.38C119.68 102.785 120.741 103.846 120.741 105.146C120.741 106.446 119.68 107.507 118.38 107.507Z" fill="#C1694F"/>
<path d="M115.829 142.557C115.829 142.557 126.473 150.409 128.718 151.3C129.209 151.495 127.563 139.79 127.563 139.79H104.099C104.099 139.79 102.45 151.693 103.36 151.202C105.374 150.125 115.829 142.557 115.829 142.557Z" fill="#99AAB5"/>
<path d="M119.961 150.612C119.961 150.612 121.141 148.645 121.632 147.76C122.205 146.727 123.059 142.817 123.059 142.817L116.17 139.792C116.17 139.767 115.667 139.811 115.667 139.811L115.087 139.94L114.546 140.135C113.857 140.355 114.842 140.16 114.842 140.185L108.624 142.817C108.624 142.817 109.528 146.727 110.107 147.76C110.598 148.645 111.766 150.612 111.766 150.612C111.766 150.612 109.399 152.381 108.508 158.684H123.2C122.322 153.663 119.961 150.612 119.961 150.612Z" fill="#BE1931"/>
<path d="M100.991 129.165C102.77 130.947 115.819 139.816 115.819 139.816C115.819 139.816 109.129 143.726 102.956 150.944C102.342 151.668 98.1014 136.384 97.9692 132.972C97.9345 132.018 100.141 128.309 100.991 129.165ZM130.713 129.165C128.931 130.947 115.888 139.816 115.888 139.816C115.888 139.816 122.578 143.726 128.745 150.944C129.359 151.668 133.597 136.384 133.726 132.972C133.764 132.018 131.563 128.309 130.713 129.165Z" fill="#F5F8FA"/>
<path d="M115.865 141.954C117.089 141.888 120.722 144.382 120.342 145.89C118.89 151.644 117.666 150.269 115.962 150.269C114.039 150.269 112.924 151.758 111.583 146.138C111.291 144.92 114.096 142.055 115.865 141.954ZM122.259 158.681H109.594C109.594 158.681 111.297 151.862 115.947 151.862C120.593 151.862 122.259 158.681 122.259 158.681Z" fill="#DD2E44"/>
</g>
<defs>
<clipPath id="clip0_3091_20999">
<rect width="113.333" height="113.333" fill="white" transform="translate(46.7461 45.332)"/>
</clipPath>
</defs>
</svg>
